<?xml version="1.0" encoding="UTF-8" standalone="no"?>
<!-- Created with Inkscape (http://www.inkscape.org/) -->

<svg
   width="48"
   height="48"
   viewBox="0 0 12.7 12.7"
   version="1.1"
   id="svg1177"
   inkscape:version="1.2 (dc2aeda, 2022-05-15)"
   sodipodi:docname="logo2.svg"
   xmlns:inkscape="http://www.inkscape.org/namespaces/inkscape"
   xmlns:sodipodi="http://sodipodi.sourceforge.net/DTD/sodipodi-0.dtd"
   xmlns="http://www.w3.org/2000/svg"
   xmlns:svg="http://www.w3.org/2000/svg">
  <sodipodi:namedview
     id="namedview1179"
     pagecolor="#ffffff"
     bordercolor="#000000"
     borderopacity="0.25"
     inkscape:showpageshadow="2"
     inkscape:pageopacity="0.0"
     inkscape:pagecheckerboard="0"
     inkscape:deskcolor="#d1d1d1"
     inkscape:document-units="mm"
     showgrid="false"
     inkscape:zoom="11.901796"
     inkscape:cx="28.987222"
     inkscape:cy="26.844689"
     inkscape:window-width="1920"
     inkscape:window-height="1011"
     inkscape:window-x="0"
     inkscape:window-y="0"
     inkscape:window-maximized="1"
     inkscape:current-layer="layer1" />
  <defs
     id="defs1174" />
  <g
     inkscape:label="Ebene 1"
     inkscape:groupmode="layer"
     id="layer1">
    <g
       data-v-fde0c5aa=""
       id="f1519a27-cd0c-4f11-8401-252fa98854b7"
       stroke="none"
       fill="#eae8e7"
       transform="matrix(0.137778,0,0,0.18235294,0.19998007,0.2)"
       style="fill:#000000;fill-opacity:1">
      <switch
         id="switch17"
         style="fill:#000000;fill-opacity:1">
        <g
           id="g15"
           style="fill:#000000;fill-opacity:1">
          <path
             d="m 2.514,47.283 c 0,0 -0.418,0.053 -1.361,0.388 L 1.152,47.668 c -0.281,-0.68 -0.449,-1.505 -0.45,-2.397 0,-0.097 0.013,-0.19 0.017,-0.288 L 12.987,50.6 2.661,43.45 0.074,44.688 0.091,44.696 c -0.209,0.947 -0.063,2.187 0.496,3.41 0.021,0.045 0.046,0.083 0.068,0.128 l 0.029,0.015 h 0.008 c 0.538,0 0.935,0.128 0.96,0.446 L 27.213,60.451 19.174,54.884 Z M 43.404,65.936 35.489,62.327 33.216,63.212 43.629,68 85.983,42.661 77.557,45.943 Z M 89.616,39.389 88.408,39.068 a 1.409,1.409 0 0 1 -0.099,-0.479 c 0,-0.146 0.021,-0.238 0.017,-0.238 0.003,-0.014 1.497,-0.926 1.497,-0.926 a 0.902,0.902 0 0 0 0.089,-0.37 0.901,0.901 0 0 0 -0.073,-0.339 l -2.551,-0.68 c 0.217,0.315 0.342,0.65 0.342,1 0,0.202 -0.044,0.373 -0.079,0.483 l -0.095,0.317 -0.307,0.115 -1.205,0.452 c -0.05,0.539 -0.125,1.014 -0.205,1.427 l 2.245,-1.323 c -10e-4,0.029 -0.084,0.801 0.363,1.117 l -2.03,1.188 0.091,0.239 c 0.108,0.284 0.165,0.59 0.169,0.908 L 86.581,42.302 90,40.258 c -0.001,-0.32 -0.143,-0.619 -0.384,-0.869 z m -18.544,9.081 -33.901,13.199 6.461,2.959 z m 14.221,-7.817 c 0.145,-0.553 0.393,-1.676 0.489,-3.145 l 1.446,-0.545 a 0.992,0.992 0 0 0 0.05,-0.284 c 0,-0.247 -0.098,-0.479 -0.259,-0.69 l -7.451,-2.578 0.024,1.283 0.025,0.023 c 0.449,0.435 0.687,0.952 0.687,1.498 0,0.112 -0.021,0.204 -0.032,0.26 -0.056,0.248 -0.257,0.505 -0.501,0.565 l -56.117,13.898 9.63,6.294 52.16,-19.598 c -0.13,1.711 -0.462,2.922 -0.548,3.216 L 32.614,60.945 3.052,41.011 V 37.475 L 18.383,47.493 6.604,34.976 2.327,36.37 a 4.51,4.51 0 0 0 -0.184,0.513 c -0.293,1.005 -0.348,2.352 -0.087,3.789 0.036,0.2 0.087,0.387 0.133,0.577 0.049,0.203 0.098,0.406 0.156,0.598 L 32.322,62.605 86.225,41.614 a 1.96,1.96 0 0 0 -0.123,-0.675 z m -28.565,-11.494 24.235,-2.851 -0.216,4.125 -37.362,4.458 -3.478,1.494 a 0.653,0.653 0 0 1 -0.496,0.008 l -2.002,-0.789 -17.265,2.06 -5.354,-10.968 -1.688,-0.665 6.551,13.326 62.634,-7.836 c 0.492,-0.188 0.068,-0.826 0.068,-0.826 l -1.235,-1.111 0.175,-3.315 0.934,-0.11 c 0,0 0.551,-0.198 0.275,-0.754 l -5.868,-4.798 z m -40.367,-1.846 3.062,6.235 9.832,-1.157 z m 25.647,-0.901 a 0.315,0.315 0 0 0 0.123,-0.025 L 78.792,11.541 a 0.338,0.338 0 0 0 0.184,-0.438 0.326,0.326 0 0 0 -0.429,-0.186 L 41.886,25.764 A 0.344,0.344 0 0 0 41.7,26.202 c 0.053,0.13 0.177,0.21 0.308,0.21 z M 76.293,14.036 44.924,26.79 a 0.337,0.337 0 0 0 -0.183,0.438 0.326,0.326 0 0 0 0.428,0.184 L 76.538,14.658 a 0.338,0.338 0 0 0 0.185,-0.437 0.327,0.327 0 0 0 -0.43,-0.185 z m -4.632,3.904 -20.654,8.998 a 0.339,0.339 0 0 0 -0.175,0.439 0.331,0.331 0 0 0 0.436,0.178 L 71.922,18.557 A 0.343,0.343 0 0 0 72.097,18.115 0.33,0.33 0 0 0 71.661,17.94 Z M 31.85,28.697 14.983,22.453 a 0.33,0.33 0 0 0 -0.424,0.202 0.339,0.339 0 0 0 0.198,0.431 l 16.865,6.241 a 0.327,0.327 0 0 0 0.424,-0.199 0.338,0.338 0 0 0 -0.196,-0.431 z m 7.78,7.385 41.66,-18.204 c 1.613,-0.799 0.039,-1.16 0.039,-1.16 l -0.956,-0.24 c -0.096,-0.768 -0.143,-2.244 -0.132,-3.274 0,-0.737 0.012,-1.28 0.012,-1.282 A 30.984,30.984 0 0 1 80.241,11.05 c 0,-1.297 0.065,-1.944 0.126,-2.25 C 80.386,8.713 80.4,8.661 80.414,8.625 L 81.079,8.37 C 82.515,7.695 80.892,7.343 80.892,7.343 L 52,0 8.088,13.905 c 0,0 -1.456,0.235 0.428,9.641 z M 9.046,14.248 38.402,24.75 80.04,8.768 c -0.071,0.359 -0.105,1.014 -0.129,2.282 0,0.262 0,0.554 0.016,0.875 -0.002,10e-4 -0.016,0.547 -0.016,1.28 0.016,1.282 0.01,3.031 0.223,3.748 L 39.22,34.331 10.912,23.148 c 0,0 -0.661,-0.125 -0.97,0.168 L 9.863,23.127 9.859,23.117 C 9.473,22.155 7.865,17.778 9.046,14.248 Z M 35.084,27.863 12.76,19.646 a 0.33,0.33 0 0 0 -0.423,0.202 0.337,0.337 0 0 0 0.198,0.43 l 22.324,8.217 a 0.328,0.328 0 0 0 0.423,-0.201 0.336,0.336 0 0 0 -0.198,-0.431 z m 2.206,-0.374 a 0.333,0.333 0 0 0 0.424,-0.205 0.337,0.337 0 0 0 -0.201,-0.427 L 10.261,16.991 a 0.332,0.332 0 0 0 -0.423,0.205 c -0.06,0.173 0.03,0.367 0.201,0.43 z m 33.128,7.085 a 0.33,0.33 0 0 0 -0.397,-0.251 l -41.913,9.738 a 0.337,0.337 0 0 0 0.073,0.663 c 0.025,0 0.05,-0.003 0.074,-0.008 L 70.17,34.978 a 0.337,0.337 0 0 0 0.248,-0.404 z M 9.815,34.709 a 0.34,0.34 0 0 0 0.005,0.475 l 9.313,9.267 a 0.32,0.32 0 0 0 0.464,-0.005 0.342,0.342 0 0 0 -0.002,-0.477 L 10.282,34.704 A 0.326,0.326 0 0 0 9.815,34.709 Z M 5.322,33.32 5.317,33.321 21.912,50.959 79.306,36.745 c 0.01,-0.058 0.028,-0.112 0.028,-0.174 0,-0.372 -0.179,-0.718 -0.48,-1.009 l -0.063,-0.024 -0.053,-2.897 -0.326,0.042 0.053,3.019 -55.784,13.745 c 0,0 -16.123,-16.378 -16.128,-16.401 -0.167,-0.732 -0.282,-1.741 -0.31,-2.86 a 17.41,17.41 0 0 1 0.06,-1.923 l 15.688,15.103 37.454,-8.311 -39.709,4.968 a 0.662,0.662 0 0 1 -0.673,-0.365 l -7.054,-14.35 -7.243,1.423 0.04,0.039 -0.042,0.008 -0.001,0.001 c -0.414,0.76 -0.603,2.066 -0.432,3.528 0.146,1.253 0.524,2.326 0.991,3.013 z m 29.223,10.894 a 0.335,0.335 0 0 0 -0.248,0.4 0.332,0.332 0 0 0 0.323,0.263 0.243,0.243 0 0 0 0.071,-0.009 L 66.275,37.563 A 0.333,0.333 0 0 0 66.526,37.162 0.331,0.331 0 0 0 66.13,36.911 Z M 20.932,44.147 a 0.333,0.333 0 0 0 0.24,-0.102 0.344,0.344 0 0 0 -0.011,-0.478 L 9.3,32.011 a 0.327,0.327 0 0 0 -0.468,0.011 0.34,0.34 0 0 0 0.011,0.475 l 11.86,11.557 a 0.329,0.329 0 0 0 0.229,0.093 z"
             id="path13"
             style="fill:#000000;fill-opacity:1" />
        </g>
      </switch>
    </g>
  </g>
</svg>
